# xmcd
#
# Track frame offsets:
#	150
#	16915
#	31668
#	45775
#	58906
#	77210
#	90304
#	104245
#	116080
#	128825
#	146450
#	159440
#	172667
#	193005
#	204976
#
# Disc length: 3067 seconds
# Revision: 1
# Processed by: cddbd v1.5.2PL0 Copyright (c) Steve Scherf et al.
# Submitted via: dBpowerAMP V12.0
#
DISCID=b90bf90f
DTITLE=Jimmie Vaughan - Plays Blues, Ballads and Favorites
DYEAR=2010
DGENRE=Rock T-Z
TTITLE0=The Pleasure's all Mine
TTITLE1=Come Love
TTITLE2=I'm Leaving It Up to You
TTITLE3=Comin' and Goin'
TTITLE4=Wheel of Fortune
TTITLE5=How Can You Be So Mean
TTITLE6=Just a Little Bit
TTITLE7=Lonely Weekends
TTITLE8=I Miss You So
TTITLE9=RM Blues
TTITLE10=Roll, Roll, Roll
TTITLE11=Send Me Some Lovin'
TTITLE12=Why, Why, Why
TTITLE13=(She's Got The) Blues for Sale
TTITLE14=Funny How Time Slips Away
EXTD=
EXTT0=
EXTT1=
EXTT2=
EXTT3=
EXTT4=
EXTT5=
EXTT6=
EXTT7=
EXTT8=
EXTT9=
EXTT10=
EXTT11=
EXTT12=
EXTT13=
EXTT14=
PLAYORDER=
